<svg width="330" height="362" xmlns="http://www.w3.org/2000/svg" xmlns:xlink="http://www.w3.org/1999/xlink" xml:space="preserve" overflow="hidden"><g transform="translate(-1186 -964)"><g><g><g><path d="M1471.31 1081.94C1471.31 1091.43 1463.62 1099.12 1454.12 1099.12 1444.63 1099.12 1436.94 1091.43 1436.94 1081.94 1436.94 1072.44 1444.63 1064.75 1454.12 1064.75 1463.62 1064.75 1471.31 1072.44 1471.31 1081.94Z" fill="#FFFFFF"/><path d="M1265.06 1081.94C1265.06 1091.43 1257.37 1099.12 1247.87 1099.12 1238.38 1099.12 1230.69 1091.43 1230.69 1081.94 1230.69 1072.44 1238.38 1064.75 1247.87 1064.75 1257.37 1064.75 1265.06 1072.44 1265.06 1081.94Z" fill="#FFFFFF"/><path d="M1402.56 1081.94C1402.56 1091.43 1394.87 1099.12 1385.37 1099.12 1375.88 1099.12 1368.19 1091.43 1368.19 1081.94 1368.19 1072.44 1375.88 1064.75 1385.37 1064.75 1394.87 1064.75 1402.56 1072.44 1402.56 1081.94Z" fill="#FFFFFF"/><path d="M1333.81 1081.94C1333.81 1091.43 1326.12 1099.12 1316.62 1099.12 1307.13 1099.12 1299.44 1091.43 1299.44 1081.94 1299.44 1072.44 1307.13 1064.75 1316.62 1064.75 1326.12 1064.75 1333.81 1072.44 1333.81 1081.94Z" fill="#FFFFFF"/><path d="M1495.03 1166.16 1484.03 1115.97C1483.69 1114.59 1483 1113.22 1481.62 1112.19 1477.5 1109.09 1473.03 1106.34 1467.87 1104.97 1463.41 1103.59 1458.94 1102.56 1454.12 1102.56 1449.31 1102.56 1444.5 1103.25 1440.37 1104.97 1435.22 1106.69 1430.75 1109.09 1426.62 1112.19 1425.25 1113.22 1424.56 1114.59 1424.22 1115.97L1419.75 1136.25 1419.75 1136.25 1415.28 1115.97C1414.94 1114.59 1414.25 1113.22 1412.87 1112.19 1408.75 1109.09 1404.28 1106.34 1399.12 1104.97 1394.66 1103.59 1390.19 1102.56 1385.37 1102.56 1380.56 1102.56 1375.75 1103.25 1371.62 1104.97 1366.47 1106.69 1362 1109.09 1357.87 1112.19 1356.5 1113.22 1355.81 1114.59 1355.47 1115.97L1351 1135.91 1351 1136.25 1346.53 1115.97C1346.19 1114.59 1345.5 1113.22 1344.12 1112.19 1340 1109.09 1335.53 1106.34 1330.37 1104.97 1325.91 1103.59 1321.44 1102.56 1316.62 1102.56 1311.81 1102.56 1307 1103.25 1302.87 1104.97 1297.72 1106.69 1293.25 1109.09 1289.12 1112.19 1287.75 1113.22 1287.06 1114.59 1286.72 1115.97L1282.25 1135.91 1282.25 1135.91 1277.78 1115.97C1277.44 1114.59 1276.75 1113.22 1275.37 1112.19 1271.25 1109.09 1266.78 1106.34 1261.62 1104.97 1257.16 1103.59 1252.69 1102.56 1247.87 1102.56 1243.06 1102.56 1238.25 1103.25 1234.12 1104.97 1228.97 1106.69 1224.5 1109.09 1220.37 1112.19 1219 1113.22 1218.31 1114.59 1217.97 1115.97L1206.97 1165.81C1205.94 1169.59 1208.34 1173.72 1212.47 1174.41 1212.81 1174.41 1213.16 1174.41 1213.5 1174.41 1216.59 1174.41 1219.34 1172.34 1220.37 1168.91L1230.69 1123.19 1230.69 1147.59 1220.37 1198.81 1230.69 1198.81 1230.69 1257.25 1244.44 1257.25 1244.44 1198.81 1251.31 1198.81 1251.31 1257.25 1265.06 1257.25 1265.06 1198.81 1275.37 1198.81 1265.06 1147.59 1265.06 1123.19 1275.37 1169.25C1276.06 1172.34 1278.81 1174.75 1281.91 1174.75L1281.91 1174.75C1285 1174.75 1287.75 1172.69 1288.44 1169.25L1299.44 1123.19 1299.44 1178.19 1299.44 1257.25 1313.19 1257.25 1313.19 1178.19 1320.06 1178.19 1320.06 1257.25 1333.81 1257.25 1333.81 1178.19 1333.81 1123.19 1344.12 1169.25C1344.81 1172.34 1347.56 1174.75 1351 1174.75 1351 1174.75 1351 1174.75 1351 1174.75L1351 1174.75C1354.09 1174.75 1356.84 1172.69 1357.53 1169.25L1368.19 1123.19 1368.19 1147.94 1357.87 1198.81 1368.19 1198.81 1368.19 1257.25 1381.94 1257.25 1381.94 1198.81 1388.81 1198.81 1388.81 1257.25 1402.56 1257.25 1402.56 1198.81 1412.87 1198.81 1402.56 1147.25 1402.56 1123.19 1412.87 1169.25C1413.56 1172.34 1416.31 1174.75 1419.75 1174.75 1419.75 1174.75 1419.75 1174.75 1419.75 1174.75L1419.75 1174.75C1419.75 1174.75 1419.75 1174.75 1419.75 1174.75 1422.84 1174.75 1425.59 1172.69 1426.62 1169.25L1436.94 1123.19 1436.94 1178.19 1436.94 1257.25 1450.69 1257.25 1450.69 1178.19 1457.56 1178.19 1457.56 1257.25 1471.31 1257.25 1471.31 1178.19 1471.31 1123.19 1481.62 1169.25C1482.31 1172.34 1485.06 1174.75 1488.5 1174.75 1489.19 1174.75 1490.22 1174.75 1490.91 1174.41 1494 1173.03 1495.72 1169.59 1495.03 1166.16Z" fill="#FFFFFF"/></g></g></g><g><g><g><path d="M1299.44 1069.87C1299.44 1086.96 1285.59 1100.81 1268.5 1100.81 1251.41 1100.81 1237.56 1086.96 1237.56 1069.87 1237.56 1052.79 1251.41 1038.94 1268.5 1038.94 1285.59 1038.94 1299.44 1052.79 1299.44 1069.87Z" fill="#FFFFFF"/><path d="M1464.44 1069.87C1464.44 1086.96 1450.59 1100.81 1433.5 1100.81 1416.41 1100.81 1402.56 1086.96 1402.56 1069.87 1402.56 1052.79 1416.41 1038.94 1433.5 1038.94 1450.59 1038.94 1464.44 1052.79 1464.44 1069.87Z" fill="#FFFFFF"/><path d="M1412.87 1219.06 1412.87 1188.12C1412.87 1183.31 1410.81 1178.5 1406.69 1175.75 1398.44 1168.87 1387.44 1164.06 1376.44 1161.31 1368.87 1159.25 1359.94 1157.19 1351 1157.19 1342.75 1157.19 1333.81 1158.56 1325.56 1161.31 1314.56 1164.06 1304.25 1169.56 1295.31 1175.75 1291.19 1179.19 1289.12 1183.31 1289.12 1188.12L1289.12 1219.06 1412.87 1219.06Z" fill="#FFFFFF"/><path d="M1381.94 1118C1381.94 1135.09 1368.09 1148.94 1351 1148.94 1333.91 1148.94 1320.06 1135.09 1320.06 1118 1320.06 1100.91 1333.91 1087.06 1351 1087.06 1368.09 1087.06 1381.94 1100.91 1381.94 1118Z" fill="#FFFFFF"/><path d="M1489.19 1127.62C1480.94 1120.75 1469.94 1115.94 1458.94 1113.19 1451.37 1111.12 1442.44 1109.06 1433.5 1109.06 1425.25 1109.06 1416.31 1110.44 1408.06 1113.19 1403.94 1114.56 1399.81 1115.94 1395.69 1118L1395.69 1118.69C1395.69 1130.37 1390.87 1141.37 1383.31 1148.94 1396.37 1153.06 1406.69 1158.56 1414.94 1164.75 1417 1166.81 1419.06 1168.19 1420.44 1170.94L1495.37 1170.94 1495.37 1140C1495.37 1135.19 1493.31 1130.37 1489.19 1127.62Z" fill="#FFFFFF"/><path d="M1287.06 1164.75 1287.06 1164.75C1296.69 1157.87 1307.69 1152.37 1318.69 1148.94 1311.12 1140.69 1306.31 1130.37 1306.31 1118.69 1306.31 1118 1306.31 1118 1306.31 1117.31 1302.19 1115.94 1298.06 1113.87 1293.94 1113.19 1286.37 1111.12 1277.44 1109.06 1268.5 1109.06 1260.25 1109.06 1251.31 1110.44 1243.06 1113.19 1232.06 1116.62 1221.75 1121.44 1212.81 1127.62 1208.69 1130.37 1206.62 1135.19 1206.62 1140L1206.62 1170.94 1280.87 1170.94C1282.94 1168.19 1284.31 1166.81 1287.06 1164.75Z" fill="#FFFFFF"/></g></g></g></g></svg>