<svg width="96" height="96" xmlns="http://www.w3.org/2000/svg" xmlns:xlink="http://www.w3.org/1999/xlink" xml:space="preserve" overflow="hidden"><g transform="translate(-296 -291)"><path d="M379 316C379 318.761 376.761 321 374 321 371.239 321 369 318.761 369 316 369 313.239 371.239 311 374 311 376.761 311 379 313.239 379 316Z" fill="#FFFFFF"/><path d="M319 316C319 318.761 316.761 321 314 321 311.239 321 309 318.761 309 316 309 313.239 311.239 311 314 311 316.761 311 319 313.239 319 316Z" fill="#FFFFFF"/><path d="M359 316C359 318.761 356.761 321 354 321 351.239 321 349 318.761 349 316 349 313.239 351.239 311 354 311 356.761 311 359 313.239 359 316Z" fill="#FFFFFF"/><path d="M339 316C339 318.761 336.761 321 334 321 331.239 321 329 318.761 329 316 329 313.239 331.239 311 334 311 336.761 311 339 313.239 339 316Z" fill="#FFFFFF"/><path d="M385.9 340.5 382.7 325.9C382.6 325.5 382.4 325.1 382 324.8 380.8 323.9 379.5 323.1 378 322.7 376.7 322.3 375.4 322 374 322 372.6 322 371.2 322.2 370 322.7 368.5 323.2 367.2 323.9 366 324.8 365.6 325.1 365.4 325.5 365.3 325.9L364 331.8 364 331.8 362.7 325.9C362.6 325.5 362.4 325.1 362 324.8 360.8 323.9 359.5 323.1 358 322.7 356.7 322.3 355.4 322 354 322 352.6 322 351.2 322.2 350 322.7 348.5 323.2 347.2 323.9 346 324.8 345.6 325.1 345.4 325.5 345.3 325.9L344 331.7 344 331.8 342.7 325.9C342.6 325.5 342.4 325.1 342 324.8 340.8 323.9 339.5 323.1 338 322.7 336.7 322.3 335.4 322 334 322 332.6 322 331.2 322.2 330 322.7 328.5 323.2 327.2 323.9 326 324.8 325.6 325.1 325.4 325.5 325.3 325.9L324 331.7 324 331.7 322.7 325.9C322.6 325.5 322.4 325.1 322 324.8 320.8 323.9 319.5 323.1 318 322.7 316.7 322.3 315.4 322 314 322 312.6 322 311.2 322.2 310 322.7 308.5 323.2 307.2 323.9 306 324.8 305.6 325.1 305.4 325.5 305.3 325.9L302.1 340.4C301.8 341.5 302.5 342.7 303.7 342.9 303.8 342.9 303.9 342.9 304 342.9 304.9 342.9 305.7 342.3 306 341.3L309 328 309 335.1 306 350 309 350 309 367 313 367 313 350 315 350 315 367 319 367 319 350 322 350 319 335.1 319 328 322 341.4C322.2 342.3 323 343 323.9 343L323.9 343C324.8 343 325.6 342.4 325.8 341.4L329 328 329 344 329 367 333 367 333 344 335 344 335 367 339 367 339 344 339 328 342 341.4C342.2 342.3 343 343 344 343 344 343 344 343 344 343L344 343C344.9 343 345.7 342.4 345.9 341.4L349 328 349 335.2 346 350 349 350 349 367 353 367 353 350 355 350 355 367 359 367 359 350 362 350 359 335 359 328 362 341.4C362.2 342.3 363 343 364 343 364 343 364 343 364 343L364 343C364 343 364 343 364 343 364.9 343 365.7 342.4 366 341.4L369 328 369 344 369 367 373 367 373 344 375 344 375 367 379 367 379 344 379 328 382 341.4C382.2 342.3 383 343 384 343 384.2 343 384.5 343 384.7 342.9 385.6 342.5 386.1 341.5 385.9 340.5Z" fill="#FFFFFF"/></g></svg>