<svg width="541" height="540" xmlns="http://www.w3.org/2000/svg" xmlns:xlink="http://www.w3.org/1999/xlink" xml:space="preserve" overflow="hidden"><g transform="translate(-2018 -995)"><path d="M2028.5 1265C2028.5 1121.68 2144.91 1005.5 2288.5 1005.5 2432.09 1005.5 2548.5 1121.68 2548.5 1265 2548.5 1408.32 2432.09 1524.5 2288.5 1524.5 2144.91 1524.5 2028.5 1408.32 2028.5 1265Z" stroke="#FFFFFF" stroke-width="20.625" stroke-miterlimit="8" fill="none" fill-rule="evenodd"/><g><g><g><path d="M2126.78 1318.81C2124.03 1314 2117.5 1312.28 2112.69 1315.03 2107.88 1317.78 2106.16 1324.31 2108.91 1329.13L2129.53 1364.88C2132.28 1369.69 2138.81 1371.41 2143.62 1368.66 2148.44 1365.91 2150.16 1359.38 2147.41 1354.56L2126.78 1318.81Z" stroke="#FFFFFF" stroke-width="3.4375" fill="none"/><path d="M2277.69 1339.78 2229.91 1353.53 2218.56 1341.16 2280.78 1323.28 2277.69 1339.78ZM2378.06 1286.5 2355.03 1246.63 2324.09 1193 2301.06 1153.13C2298.66 1149.34 2293.5 1148.66 2290.41 1151.75L2133.66 1303 2164.59 1356.63 2203.78 1345.63 2221.31 1364.53C2224.06 1367.28 2227.84 1368.66 2231.62 1367.63L2283.53 1352.84C2284.22 1352.5 2285.25 1352.16 2285.94 1351.81 2288.34 1350.44 2290.41 1347.69 2290.75 1344.94L2295.56 1319.5 2374.28 1297.16C2378.41 1295.44 2380.47 1290.28 2378.06 1286.5Z" stroke="#FFFFFF" stroke-width="3.4375" fill="none"/></g></g></g><path d="M2325.07 1148.61C2341.54 1137.84 2368.97 1150.66 2386.35 1177.24 2403.73 1203.82 2404.47 1234.1 2388 1244.86L2378.25 1229.95C2386.48 1224.57 2383.44 1205.33 2371.44 1186.99 2359.45 1168.64 2343.05 1158.13 2334.82 1163.52Z" stroke="#FFFFFF" stroke-width="6.875" stroke-miterlimit="8" fill="none" fill-rule="evenodd"/><path d="M2363.34 1128.41C2379.81 1117.64 2407.25 1130.46 2424.62 1157.04 2442 1183.62 2442.74 1213.9 2426.27 1224.66L2416.52 1209.75C2424.76 1204.37 2421.71 1185.13 2409.71 1166.79 2397.72 1148.44 2381.32 1137.93 2373.09 1143.32Z" stroke="#FFFFFF" stroke-width="6.875" stroke-miterlimit="8" fill="none" fill-rule="evenodd"/></g></svg>